/* 
  "GizDuino Starter kit"
  
  Buzzer Sample code
  
  STEP 1: Construct the circuit of GizDuino Buzzer.
  STEP 2: Connect the USB Cable to your computer.
  STEP 3: Open the Arduino IDE.
  STEP 4: Open the Buzzer Sample code from GizDuino Starter kit code.
  STEP 5: Then, click Upload.
  
  This code is based on our UMT kit sample for buzzer.
*/
//Library for pitches 
#include "pitches.h"
#define BUZZER 9 
// Always use a PWM pin for the tone or analog write function
 
void setup() 
{
}
 
void loop() {

  tone(BUZZER,NOTE_GS5,130); 
  delay(  158);
tone(BUZZER,NOTE_GS5,130); 
  delay(  158);
  tone(BUZZER,NOTE_GS5,158); 
  delay(  158);
tone(BUZZER,NOTE_GS5,310); 
  delay(316);
 tone(BUZZER,NOTE_AS5,316); 
  delay(316);
   tone(BUZZER,NOTE_AS5,225); 
  delay(474);
tone(BUZZER,NOTE_GS5,70); 
  delay(79);
 tone(BUZZER,NOTE_GS5,130); 
  delay(  158);
   tone(BUZZER,NOTE_GS5,158); 
  delay(  158);
   tone(BUZZER,NOTE_GS5,130); 
  delay(  158);
   tone(BUZZER,NOTE_GS5,130); 
  delay(  158);
   tone(BUZZER,NOTE_GS5,130); 
  delay(  158);
   tone(BUZZER,NOTE_GS5,130); 
  delay(  158);
   tone(BUZZER,NOTE_GS5,130); 
  delay(  158);
   tone(BUZZER,NOTE_GS5,130); 
  delay(  158);
   tone(BUZZER,NOTE_GS5,130); 
  delay(  158);
  tone(BUZZER,NOTE_GS5,158); 
  delay(  158);
  tone(BUZZER,NOTE_GS5,130); 
  delay(  158);
   tone(BUZZER,NOTE_AS5,300); 
  delay(316);

tone(BUZZER,NOTE_AS5,300); 
  delay(316);
  tone(BUZZER,NOTE_GS5,600); 
  delay(1264);

 tone(BUZZER,NOTE_GS5,300); 
  delay(316);
   tone(BUZZER,NOTE_GS5,300); 
  delay(316);
tone(BUZZER,NOTE_AS5,300); 
  delay(316);
  tone(BUZZER,NOTE_AS5,225); 
  delay(474);


  tone(BUZZER,NOTE_GS5,70); 
  delay(79);
 tone(BUZZER,NOTE_GS5,158); 
  delay(  158);
   tone(BUZZER,NOTE_GS5,158); 
  delay(  158);
  tone(BUZZER,NOTE_GS5,130); 
  delay(  158);
   tone(BUZZER,NOTE_GS5,130); 
  delay(  158);
   tone(BUZZER,NOTE_GS5,130); 
  delay(  158);
   tone(BUZZER,NOTE_GS5,130); 
  delay(  158);
   tone(BUZZER,NOTE_GS5,130); 
  delay(  158);
   tone(BUZZER,NOTE_GS5,130); 
  delay(  158);
   tone(BUZZER,NOTE_GS5,130); 
  delay(  158);
   tone(BUZZER,NOTE_GS5,130); 
  delay(  158);
 tone(BUZZER,NOTE_AS5,300); 
  delay(316);

tone(BUZZER,NOTE_AS5,300); 
  delay(316);
tone(BUZZER,NOTE_GS5,310); 
  delay(316);
    tone(BUZZER,NOTE_AS5,225); 
  delay(500);
tone(BUZZER,NOTE_C6,95); 
  delay(95);
tone(BUZZER,NOTE_AS5,225); 
  delay(500);
  tone(BUZZER,NOTE_GS5,95); 
  delay(95);
tone(BUZZER,NOTE_DS5,620); 
  delay(632);
tone(BUZZER,NOTE_C6,474); 
  delay(500);
  tone(BUZZER,NOTE_AS5,2307); 
  delay(2607);
  tone(BUZZER,NOTE_GS5,316); 
  delay(316);
  tone(BUZZER,NOTE_AS5,225); 
  delay(500);
tone(BUZZER,NOTE_C6,95); 
  delay(95);
tone(BUZZER,NOTE_AS5,225); 
  delay(500);
  tone(BUZZER,NOTE_GS5,95); 
  delay(95);
tone(BUZZER,NOTE_DS5,620); 
  delay(632);
tone(BUZZER,NOTE_C6,474); 
  delay(474);
  tone(BUZZER,NOTE_AS5,1303); 
  delay(1615);
tone(BUZZER,NOTE_GS5,650); 
  delay(1100);
  
    tone(BUZZER,NOTE_AS5,300); 
  delay(316);

tone(BUZZER,NOTE_AS5,300); 
  delay(316);

  tone(BUZZER,NOTE_C6,300); 
  delay(316);

    tone(BUZZER,NOTE_GS5,300); 
  delay(316);
    tone(BUZZER,NOTE_AS5,300); 
  delay(316);
    tone(BUZZER,NOTE_AS5,300); 
  delay(316);
    tone(BUZZER,NOTE_C6,300); 
  delay(316);

   tone(BUZZER,NOTE_GS5,300); 
  delay(316);
 tone(BUZZER,NOTE_AS5,300); 
  delay(316);

tone(BUZZER,NOTE_AS5,300); 
  delay(316);

  tone(BUZZER,NOTE_C6,300); 
  delay(316);

    tone(BUZZER,NOTE_GS5,300); 
  delay(316);
    tone(BUZZER,NOTE_AS5,300); 
  delay(316);
    tone(BUZZER,NOTE_AS5,300); 
  delay(316);
    tone(BUZZER,NOTE_GS5,200); 
  delay(316);

 tone(BUZZER,NOTE_GS5,300); 
  delay(316);
    tone(BUZZER,NOTE_AS5,300); 
  delay(316);
    tone(BUZZER,NOTE_AS5,300); 
  delay(316);

tone(BUZZER,NOTE_C6,300); 
  delay(316);


 tone(BUZZER,NOTE_GS5,300); 
  delay(316);
    tone(BUZZER,NOTE_AS5,316); 
  delay(316);
    tone(BUZZER,NOTE_AS5,300); 
  delay(632);
tone(BUZZER,NOTE_GS5,300); 
  delay(316);
 tone(BUZZER,NOTE_AS5,316); 
  delay(316);
    tone(BUZZER,NOTE_AS5,316); 
  delay(316);
  tone(BUZZER,NOTE_GS5,300); 
  delay(316);
tone(BUZZER,NOTE_GS5,300); 
  delay(316);
 tone(BUZZER,NOTE_AS5,316); 
  delay(316); 
  tone(BUZZER,NOTE_AS5,316); 
  delay(316);
   tone(BUZZER,NOTE_GS5,300); 
  delay(316);
  tone(BUZZER,NOTE_GS5,300); 
  delay(316);
  tone(BUZZER,NOTE_GS5,300); 
  delay(316);
 tone(BUZZER,NOTE_AS5,316); 
  delay(316);
 tone(BUZZER,NOTE_C6,300); 
  delay(316);
 tone(BUZZER,NOTE_GS5,300); 
  delay(316);
   tone(BUZZER,NOTE_AS5,316); 
  delay(316);
 tone(BUZZER,NOTE_AS5,316); 
  delay(316);
tone(BUZZER,NOTE_C6,300); 
  delay(316);
tone(BUZZER,NOTE_GS5,300); 
  delay(316);
   tone(BUZZER,NOTE_AS5,316); 
  delay(316);
 tone(BUZZER,NOTE_AS5,316); 
  delay(316);
tone(BUZZER,NOTE_C6,300); 
  delay(316);
  tone(BUZZER,NOTE_GS5,300); 
  delay(316);
   tone(BUZZER,NOTE_AS5,316); 
  delay(316);
 tone(BUZZER,NOTE_AS5,316); 
  delay(632);

  tone(BUZZER,NOTE_GS5,300); 
  delay(316);
   tone(BUZZER,NOTE_GS5,300); 
  delay(316);
  tone(BUZZER,NOTE_GS5,26); 
  delay(26);
 tone(BUZZER,NOTE_AS5,290); 
  delay(290);
  tone(BUZZER,NOTE_GS5,300); 
  delay(316);
   tone(BUZZER,NOTE_GS5,300); 
  delay(316);
tone(BUZZER,NOTE_AS5,316); 
  delay(316);
 tone(BUZZER,NOTE_AS5,316); 
  delay(316);
  tone(BUZZER,NOTE_GS5,200); 
  delay(316);
   tone(BUZZER,NOTE_GS5,300); 
  delay(316);
  tone(BUZZER,NOTE_C6,300); 
  delay(316);
  tone(BUZZER,NOTE_C6,300); 
  delay(316);
  tone(BUZZER,NOTE_GS5,300); 
  delay(316);
  tone(BUZZER,NOTE_GS5,300); 
  delay(316);
  tone(BUZZER,NOTE_AS5,316); 
  delay(316);
  tone(BUZZER,NOTE_AS5,316); 
  delay(316);
   tone(BUZZER,NOTE_GS5,3000); 
  delay(3160);
}
